<svg id="svg" version="1.1" xmlns="http://www.w3.org/2000/svg" xmlns:xlink="http://www.w3.org/1999/xlink" width="400" height="400" viewBox="0, 0, 400,400"><g id="svgg"><path id="path0" d="M200.800 47.600 C 200.800 47.820,199.866 48.000,198.724 48.000 C 197.582 48.000,195.647 48.171,194.424 48.381 C 193.201 48.591,189.590 49.052,186.400 49.407 C 171.586 51.055,161.937 53.447,141.600 60.511 C 130.595 64.334,130.935 64.186,120.796 69.535 C 105.460 77.625,102.801 79.189,96.261 83.961 C 93.368 86.072,90.280 88.294,89.400 88.898 C 79.312 95.821,70.779 107.052,65.787 119.978 C 63.445 126.044,64.803 130.108,70.084 132.834 C 73.657 134.678,89.261 132.673,97.017 129.373 C 107.294 125.001,110.439 122.842,118.948 114.321 C 126.894 106.364,128.608 105.048,124.232 110.265 C 121.020 114.095,121.013 113.643,124.344 118.115 C 129.323 124.801,133.242 130.932,135.638 135.783 C 138.306 141.185,138.372 141.478,137.038 141.986 C 134.991 142.764,133.971 141.994,130.700 137.203 C 128.995 134.706,127.600 132.767,127.600 132.894 C 127.600 133.021,128.158 134.357,128.840 135.863 C 129.522 137.368,130.870 140.688,131.836 143.240 C 135.122 151.920,137.018 155.766,140.787 161.400 C 144.180 166.470,152.200 177.200,152.598 177.200 C 153.081 177.200,150.957 172.907,146.351 164.575 C 142.799 158.149,142.169 156.217,143.462 155.721 C 144.483 155.329,145.391 156.727,149.096 164.400 C 150.955 168.250,153.478 173.470,154.704 176.000 C 161.328 189.677,168.869 198.954,172.111 197.415 C 175.674 195.725,189.491 182.805,193.049 177.838 C 196.007 173.708,195.969 173.908,194.381 170.762 C 193.182 168.387,191.519 164.298,187.076 152.800 C 185.843 149.610,184.172 145.290,183.362 143.200 C 181.019 137.154,176.128 122.274,174.620 116.600 C 171.848 106.177,168.700 90.421,167.786 82.400 C 167.422 79.210,167.061 76.535,166.984 76.455 C 166.148 75.593,149.716 85.759,145.042 90.032 C 143.857 91.114,142.782 92.000,142.653 92.000 C 141.177 92.000,158.110 78.548,166.947 72.700 C 180.229 63.911,199.330 55.742,214.000 52.577 C 221.248 51.013,227.351 48.784,226.548 47.994 C 226.035 47.490,200.800 47.104,200.800 47.600 M187.652 69.400 C 187.600 80.493,194.039 116.364,198.225 128.300 C 199.866 132.980,199.852 131.333,198.181 123.200 C 197.661 120.670,196.770 115.900,196.200 112.600 C 195.630 109.300,194.461 103.090,193.601 98.800 C 191.889 90.257,190.009 80.065,188.767 72.600 C 187.787 66.709,187.666 66.362,187.652 69.400 M196.619 71.800 C 196.728 74.220,196.993 80.430,197.208 85.600 C 198.569 118.441,202.378 141.459,208.259 152.389 C 210.476 156.510,210.282 156.290,211.038 155.533 C 211.596 154.975,211.539 154.509,210.447 150.757 C 207.813 141.708,202.690 111.439,199.215 84.400 C 198.325 77.470,197.332 70.810,197.008 69.600 L 196.420 67.400 196.619 71.800 M176.266 71.386 C 171.396 73.958,171.751 73.208,172.059 80.261 C 172.993 101.672,179.893 132.416,187.622 149.600 C 188.760 152.130,190.709 156.540,191.953 159.400 C 194.191 164.545,196.909 169.773,197.552 170.170 C 197.859 170.360,204.829 162.817,205.136 161.963 C 205.211 161.754,204.349 159.507,203.220 156.969 C 200.846 151.629,197.370 141.859,195.563 135.448 C 194.874 133.002,194.044 130.209,193.720 129.243 C 193.168 127.599,191.560 120.995,188.836 109.182 C 188.200 106.421,187.105 102.191,186.404 99.782 C 185.509 96.705,180.894 71.587,180.804 69.300 C 180.794 69.053,179.945 69.443,176.266 71.386 M260.800 152.064 C 250.413 154.001,236.441 160.184,226.758 167.127 C 222.480 170.194,218.932 173.471,209.980 182.623 C 198.588 194.269,194.781 200.069,186.650 218.161 C 184.742 222.405,185.143 220.244,187.184 215.278 C 189.816 208.875,192.196 204.188,195.710 198.487 C 197.300 195.909,198.833 193.349,199.117 192.800 C 199.402 192.250,200.898 190.090,202.442 188.000 C 206.326 182.741,209.462 177.654,209.797 176.067 C 210.120 174.537,209.301 169.600,208.724 169.600 C 208.171 169.600,204.048 172.858,202.400 174.598 C 201.630 175.410,198.480 178.067,195.400 180.502 C 192.320 182.937,188.437 186.205,186.770 187.765 C 180.353 193.771,172.498 200.442,170.200 201.839 C 163.142 206.128,161.161 207.194,158.795 207.975 C 155.123 209.188,147.730 211.098,145.600 211.384 C 137.840 212.426,137.203 212.907,142.700 213.574 C 144.845 213.835,146.902 214.135,147.272 214.242 C 148.654 214.641,154.654 228.200,156.565 235.241 C 156.888 236.428,157.497 238.570,157.919 240.000 C 158.341 241.430,158.820 243.857,158.985 245.393 C 159.280 248.148,159.323 248.230,162.105 251.316 L 164.926 254.446 166.816 252.585 C 169.208 250.228,175.440 241.378,176.460 238.888 L 177.234 237.000 177.030 239.430 C 176.366 247.367,167.127 264.781,162.256 267.278 C 151.715 272.681,134.886 259.432,132.987 244.234 L 132.695 241.896 126.647 242.109 C 114.118 242.551,100.566 245.886,94.800 249.945 C 79.527 260.698,75.682 274.686,85.400 284.143 C 96.599 295.041,102.558 297.584,116.959 297.610 C 129.684 297.632,135.100 296.292,148.600 289.779 C 156.549 285.944,168.104 272.117,174.490 258.800 C 175.808 256.050,177.492 252.810,178.231 251.600 C 178.971 250.390,180.821 246.610,182.343 243.200 C 183.866 239.790,186.461 234.210,188.112 230.800 C 190.681 225.490,195.200 213.976,195.200 212.738 C 195.200 210.101,203.014 195.254,207.620 189.138 C 211.891 183.469,221.138 174.616,225.940 171.600 C 230.659 168.636,237.403 164.183,239.873 162.401 C 245.299 158.485,256.298 153.789,265.000 151.672 C 267.739 151.006,265.203 151.242,260.800 152.064 M285.000 176.692 C 269.113 178.971,244.085 193.225,242.975 200.626 C 241.907 207.752,246.701 215.991,251.920 215.997 C 256.044 216.002,256.685 215.217,256.973 209.800 C 257.637 197.327,270.177 185.418,280.590 187.372 L 282.173 187.669 280.265 188.589 C 274.465 191.384,269.919 198.216,269.947 204.094 C 269.968 208.337,271.482 209.224,276.277 207.800 C 284.349 205.402,287.378 199.876,288.990 184.600 C 289.338 181.300,289.722 178.105,289.843 177.500 C 290.077 176.334,288.885 176.135,285.000 176.692 M210.505 214.167 C 204.816 219.434,200.671 227.535,200.623 233.480 C 200.553 242.212,212.696 243.659,216.076 235.321 C 216.415 234.485,217.094 232.810,217.584 231.600 C 222.699 218.970,217.950 207.274,210.505 214.167 M263.652 219.838 C 258.355 220.997,252.068 225.533,250.080 229.631 C 249.608 230.604,248.475 232.390,247.562 233.600 C 243.236 239.336,242.871 243.666,246.548 245.616 C 250.356 247.636,254.524 244.937,258.478 237.892 C 258.851 237.228,259.366 236.485,259.623 236.242 C 260.567 235.348,259.536 237.787,257.611 241.000 C 256.557 242.760,254.278 246.783,252.547 249.941 C 248.773 256.826,244.465 262.325,241.916 263.512 C 235.948 266.292,232.638 267.596,230.000 268.209 C 219.091 270.742,212.680 281.099,222.130 280.924 C 228.612 280.804,235.089 277.626,241.335 271.500 C 244.785 268.117,246.000 267.140,246.000 267.750 C 246.000 267.832,245.351 268.597,244.557 269.450 C 241.809 272.402,237.704 277.413,235.587 280.399 C 234.418 282.048,232.908 283.984,232.231 284.702 C 228.705 288.439,226.929 290.035,225.633 290.629 C 224.845 290.990,221.714 292.460,218.677 293.897 L 213.153 296.508 208.647 296.707 L 204.141 296.905 203.270 295.799 C 202.792 295.190,202.400 294.384,202.400 294.008 C 202.400 289.514,188.328 292.286,183.108 297.808 C 181.949 299.035,180.514 300.876,179.920 301.898 L 178.840 303.757 178.386 302.578 C 176.837 298.551,176.367 290.960,177.434 287.200 C 177.777 285.990,178.119 284.593,178.194 284.097 C 178.343 283.111,178.890 282.180,181.568 278.363 C 186.199 271.762,186.016 263.904,181.340 268.580 C 177.450 272.470,178.832 261.869,183.040 255.540 C 185.183 252.317,186.000 249.941,186.000 246.936 C 186.000 244.228,185.762 244.256,182.993 247.300 C 178.983 251.709,175.713 257.467,173.056 264.800 C 172.298 266.890,170.851 270.533,169.839 272.896 C 168.828 275.259,168.000 277.479,168.000 277.829 C 168.000 279.309,163.929 286.440,161.051 290.000 C 159.643 291.741,159.621 291.817,160.380 292.337 C 165.039 295.527,166.618 304.493,164.221 314.138 C 162.928 319.335,162.978 319.459,165.130 316.407 C 169.117 310.753,181.877 311.155,195.218 317.353 C 200.623 319.864,207.136 320.183,212.136 318.182 C 222.134 314.179,238.901 295.638,251.185 275.000 C 253.019 271.920,255.456 267.870,256.601 266.000 C 263.936 254.024,272.829 236.321,275.947 227.487 L 277.144 224.096 275.529 223.368 C 274.640 222.967,273.350 222.042,272.662 221.312 C 270.654 219.184,268.358 218.808,263.652 219.838 M155.112 278.446 C 151.509 283.366,140.212 289.215,129.200 291.860 C 121.077 293.811,120.408 293.937,120.174 293.559 C 120.060 293.374,120.470 293.114,121.084 292.980 C 124.252 292.289,130.039 290.573,131.820 289.796 C 132.931 289.311,134.551 288.685,135.420 288.405 C 140.446 286.781,149.366 282.048,153.848 278.625 C 156.131 276.882,156.271 276.862,155.112 278.446 " stroke="none" fill="#e90404" fill-rule="evenodd"></path><path id="path1" d="M209.800 47.161 C 208.920 47.305,212.235 47.457,217.167 47.498 C 222.194 47.541,226.301 47.741,226.515 47.955 C 227.348 48.788,221.432 50.973,214.000 52.577 C 199.330 55.742,180.229 63.911,166.947 72.700 C 158.110 78.548,141.177 92.000,142.653 92.000 C 142.782 92.000,143.857 91.114,145.042 90.032 C 149.716 85.759,166.148 75.593,166.984 76.455 C 167.061 76.535,167.422 79.210,167.786 82.400 C 168.700 90.421,171.848 106.177,174.620 116.600 C 176.128 122.274,181.019 137.154,183.362 143.200 C 184.172 145.290,185.843 149.610,187.076 152.800 C 191.519 164.298,193.182 168.387,194.381 170.762 C 195.969 173.908,196.007 173.708,193.049 177.838 C 189.491 182.805,175.674 195.725,172.111 197.415 C 168.869 198.954,161.328 189.677,154.704 176.000 C 153.478 173.470,150.955 168.250,149.096 164.400 C 145.391 156.727,144.483 155.329,143.462 155.721 C 142.169 156.217,142.799 158.149,146.351 164.575 C 150.957 172.907,153.081 177.200,152.598 177.200 C 152.200 177.200,144.180 166.470,140.787 161.400 C 137.018 155.766,135.122 151.920,131.836 143.240 C 130.870 140.688,129.522 137.368,128.840 135.863 C 128.158 134.357,127.600 133.021,127.600 132.894 C 127.600 132.767,128.995 134.706,130.700 137.203 C 133.971 141.994,134.991 142.764,137.038 141.986 C 138.372 141.478,138.306 141.185,135.638 135.783 C 133.242 130.932,129.323 124.801,124.344 118.115 C 121.013 113.643,121.020 114.095,124.232 110.265 C 128.608 105.048,126.894 106.364,118.948 114.321 C 110.439 122.842,107.294 125.001,97.017 129.373 C 89.261 132.673,73.657 134.678,70.084 132.834 C 64.803 130.108,63.445 126.044,65.787 119.978 C 70.779 107.052,79.312 95.821,89.400 88.898 C 90.280 88.294,93.368 86.072,96.261 83.961 C 102.801 79.189,105.460 77.625,120.796 69.535 C 130.935 64.186,130.595 64.334,141.600 60.511 C 161.017 53.767,168.746 51.792,185.000 49.423 L 189.000 48.840 185.400 48.982 C 164.449 49.812,119.641 65.068,104.000 76.695 C 103.450 77.104,101.560 78.320,99.800 79.397 C 95.657 81.932,92.903 83.956,89.204 87.185 C 84.488 91.300,79.456 96.056,78.800 97.016 C 78.470 97.499,76.812 99.413,75.115 101.268 C 68.060 108.982,64.478 114.994,62.047 123.200 C 59.013 133.440,59.128 136.389,62.562 136.406 C 65.541 136.421,68.192 137.461,71.600 139.952 C 73.470 141.318,76.039 143.157,77.308 144.039 C 79.494 145.556,97.758 163.706,101.057 167.639 C 101.906 168.651,103.590 170.885,104.800 172.605 C 106.010 174.326,107.846 176.855,108.881 178.227 C 111.886 182.211,118.166 191.949,119.708 195.014 C 121.189 197.958,121.372 198.699,121.826 203.600 C 122.137 206.963,122.366 207.544,124.247 209.755 C 126.299 212.166,128.153 218.432,128.756 225.000 C 129.159 229.381,129.700 228.848,123.126 230.539 C 113.879 232.917,105.384 236.783,97.000 242.428 C 74.309 257.704,71.640 275.016,89.785 289.217 C 91.038 290.197,92.815 291.578,93.732 292.286 C 97.585 295.255,108.822 300.189,114.598 301.447 C 117.019 301.975,120.170 302.664,121.600 302.978 C 123.030 303.293,125.487 303.668,127.060 303.812 L 129.919 304.073 130.802 306.495 C 132.122 310.112,142.275 320.000,144.671 320.000 C 144.858 320.000,145.952 320.634,147.103 321.409 C 151.587 324.428,160.676 327.810,164.981 328.061 C 167.933 328.233,167.905 328.301,167.960 320.762 C 168.008 314.261,168.024 314.234,172.531 313.534 C 177.414 312.775,189.813 315.008,192.557 317.141 C 192.800 317.330,194.350 317.983,196.000 318.592 C 197.650 319.201,199.380 319.934,199.844 320.222 C 204.676 323.217,214.853 320.362,222.024 314.000 C 223.388 312.790,225.515 310.923,226.752 309.851 C 236.889 301.060,247.000 289.833,253.206 280.474 C 256.485 275.529,261.748 271.446,269.535 267.805 C 290.895 257.817,298.449 252.825,308.000 242.386 C 316.902 232.656,320.518 226.373,325.258 212.400 C 331.424 194.224,331.586 181.431,325.801 169.529 C 324.841 167.552,324.620 166.739,324.951 166.405 C 325.679 165.671,323.933 166.425,323.000 167.247 C 322.560 167.635,321.087 168.860,319.726 169.969 C 309.105 178.627,303.565 187.745,300.206 202.094 C 298.536 209.232,296.728 212.604,292.540 216.394 C 284.860 223.345,277.518 225.069,273.177 220.941 C 270.378 218.280,263.173 218.221,258.960 220.825 C 258.270 221.251,257.431 221.600,257.096 221.600 C 256.246 221.600,252.614 224.945,251.145 227.080 C 249.543 229.409,249.890 229.722,251.534 227.432 C 256.439 220.602,268.219 217.090,272.481 221.186 C 273.353 222.023,274.758 223.020,275.605 223.402 L 277.144 224.096 275.947 227.487 C 272.829 236.321,263.936 254.024,256.601 266.000 C 255.456 267.870,253.019 271.920,251.185 275.000 C 238.901 295.638,222.134 314.179,212.136 318.182 C 207.136 320.183,200.623 319.864,195.218 317.353 C 181.877 311.155,169.117 310.753,165.130 316.407 C 162.978 319.459,162.928 319.335,164.221 314.138 C 166.618 304.493,165.039 295.527,160.380 292.337 C 159.621 291.817,159.643 291.741,161.051 290.000 C 163.929 286.440,168.000 279.309,168.000 277.829 C 168.000 277.479,168.828 275.259,169.839 272.896 C 170.851 270.533,172.298 266.890,173.056 264.800 C 175.713 257.467,178.983 251.709,182.993 247.300 C 185.762 244.256,186.000 244.228,186.000 246.936 C 186.000 249.941,185.183 252.317,183.040 255.540 C 180.164 259.866,179.524 261.620,179.458 265.354 C 179.377 269.912,179.609 270.311,181.340 268.580 C 186.016 263.904,186.199 271.762,181.568 278.363 C 178.890 282.180,178.343 283.111,178.194 284.097 C 178.119 284.593,177.777 285.990,177.434 287.200 C 176.367 290.960,176.837 298.551,178.386 302.578 L 178.840 303.757 179.920 301.898 C 183.235 296.193,188.379 293.002,195.577 292.186 C 197.899 291.923,200.070 291.801,200.400 291.915 C 201.421 292.267,202.400 293.291,202.400 294.008 C 202.400 294.384,202.792 295.190,203.270 295.799 L 204.141 296.905 208.647 296.707 L 213.153 296.508 218.677 293.897 C 221.714 292.460,224.845 290.990,225.633 290.629 C 226.929 290.035,228.705 288.439,232.231 284.702 C 232.908 283.984,234.418 282.048,235.587 280.399 C 237.704 277.413,241.809 272.402,244.557 269.450 C 245.351 268.597,246.000 267.832,246.000 267.750 C 246.000 267.140,244.785 268.117,241.335 271.500 C 235.089 277.626,228.612 280.804,222.130 280.924 C 212.680 281.099,219.091 270.742,230.000 268.209 C 232.638 267.596,235.948 266.292,241.916 263.512 C 244.465 262.325,248.773 256.826,252.547 249.941 C 254.278 246.783,256.557 242.760,257.611 241.000 C 259.536 237.787,260.567 235.348,259.623 236.242 C 259.366 236.485,258.851 237.228,258.478 237.892 C 254.524 244.937,250.356 247.636,246.548 245.616 C 242.794 243.625,243.227 239.353,247.799 233.281 C 248.842 231.896,249.601 230.667,249.484 230.551 C 249.367 230.434,248.563 231.298,247.696 232.469 C 242.285 239.782,241.980 243.957,246.690 246.262 L 248.840 247.314 251.288 246.258 C 254.091 245.048,254.397 245.112,253.301 246.677 C 252.868 247.295,251.943 249.008,251.244 250.485 C 250.545 251.962,249.563 253.672,249.062 254.285 C 248.561 254.898,247.669 256.210,247.079 257.200 C 244.383 261.728,238.325 265.456,230.523 267.389 C 221.975 269.507,215.731 275.215,217.238 279.536 C 218.336 282.688,226.194 282.123,233.691 278.354 C 235.443 277.473,236.737 276.988,236.566 277.276 C 232.638 283.894,227.180 289.048,220.944 292.029 C 209.590 297.455,204.569 297.964,202.998 293.850 C 200.762 287.995,184.731 292.517,180.129 300.300 C 178.815 302.523,178.618 302.311,178.001 298.008 C 176.987 290.931,177.967 285.100,180.914 280.681 C 183.544 276.738,183.580 276.679,184.236 275.245 C 187.046 269.108,185.704 264.787,181.747 267.233 L 180.400 268.065 180.400 265.459 C 180.400 261.569,180.933 260.618,186.314 254.920 C 188.188 252.935,188.809 250.821,189.794 243.067 C 190.776 235.340,194.230 228.519,200.384 222.154 C 203.535 218.895,203.537 218.900,201.565 224.604 C 198.027 234.838,199.470 239.904,206.414 241.630 C 214.881 243.734,220.340 233.626,221.210 214.238 C 221.426 209.419,221.797 204.739,222.034 203.838 C 223.996 196.396,232.838 187.635,244.476 181.601 C 252.022 177.689,257.661 172.758,260.246 167.811 C 262.096 164.269,262.470 164.779,261.161 169.058 C 259.268 175.241,257.651 177.429,252.047 181.400 C 250.494 182.500,249.218 183.515,249.212 183.656 C 249.205 183.797,248.579 184.607,247.819 185.456 C 247.059 186.305,246.277 187.360,246.080 187.800 C 245.883 188.240,245.258 189.590,244.691 190.800 C 238.474 204.069,244.507 219.731,254.557 216.414 C 256.692 215.710,257.132 214.734,257.571 209.732 C 258.590 198.117,266.606 189.306,277.179 188.178 L 279.758 187.903 277.374 189.887 C 270.661 195.474,267.917 201.535,269.723 206.790 C 271.293 211.360,278.401 209.216,287.595 201.398 C 291.592 197.999,301.200 188.231,301.200 187.566 C 301.200 187.314,301.824 186.258,302.586 185.219 C 303.371 184.150,304.428 181.872,305.025 179.966 C 308.353 169.337,321.038 160.800,333.505 160.800 C 335.520 160.800,335.460 161.387,333.404 161.773 C 332.632 161.918,332.000 162.208,332.000 162.418 C 332.000 162.628,331.801 162.800,331.557 162.800 C 330.879 162.800,325.910 165.244,326.134 165.467 C 326.242 165.575,326.751 165.397,327.265 165.070 C 329.229 163.822,334.525 161.903,337.289 161.437 C 340.939 160.822,340.023 160.398,335.067 160.407 C 331.332 160.414,325.482 161.198,323.507 161.956 C 322.478 162.350,322.237 162.199,319.424 159.385 C 316.005 155.966,309.119 152.201,304.485 151.218 C 301.418 150.567,301.477 150.117,304.798 148.815 C 310.194 146.701,313.254 142.775,313.819 137.244 C 314.042 135.063,313.987 135.175,312.653 139.614 C 311.280 144.187,309.682 145.855,303.889 148.761 C 299.101 151.164,298.370 151.860,294.815 157.400 C 291.784 162.123,290.746 163.044,287.369 164.004 C 283.404 165.132,282.219 165.878,281.262 167.847 C 279.747 170.964,276.162 172.198,274.230 170.267 C 272.638 168.674,272.846 167.101,275.013 164.342 C 276.011 163.072,277.537 160.451,278.404 158.517 C 279.739 155.540,279.983 155.199,279.991 156.300 C 280.003 157.999,280.467 157.942,281.692 156.092 C 286.311 149.111,293.454 145.055,300.959 145.150 C 302.754 145.172,307.273 141.745,311.218 137.369 C 312.393 136.066,313.589 134.942,313.877 134.871 C 314.165 134.800,314.400 134.383,314.400 133.944 C 314.400 133.506,314.584 132.754,314.808 132.274 C 315.177 131.485,315.167 131.473,314.708 132.153 C 309.682 139.604,304.136 143.871,297.993 145.012 C 296.127 145.358,293.121 146.086,291.313 146.630 C 288.191 147.568,287.697 147.605,281.513 147.351 C 273.720 147.032,265.626 147.680,261.000 148.992 C 255.804 150.467,253.702 150.829,243.103 152.079 C 238.369 152.637,237.693 152.378,235.676 149.230 C 230.661 141.402,229.002 132.140,229.043 112.200 C 229.093 87.718,229.783 79.858,233.412 62.400 C 234.396 57.670,235.245 52.630,235.300 51.200 L 235.400 48.600 233.836 47.837 C 232.197 47.037,213.740 46.518,209.800 47.161 M197.507 47.890 C 198.226 47.979,199.306 47.977,199.907 47.886 C 200.508 47.795,199.920 47.722,198.600 47.724 C 197.280 47.726,196.788 47.801,197.507 47.890 M190.600 48.400 C 189.544 48.854,193.383 48.854,194.800 48.400 C 195.563 48.156,195.279 48.077,193.600 48.068 C 192.390 48.062,191.040 48.211,190.600 48.400 M188.767 72.600 C 190.009 80.065,191.889 90.257,193.601 98.800 C 194.461 103.090,195.630 109.300,196.200 112.600 C 196.770 115.900,197.661 120.670,198.181 123.200 C 199.852 131.333,199.866 132.980,198.225 128.300 C 194.039 116.364,187.600 80.493,187.652 69.400 C 187.666 66.362,187.787 66.709,188.767 72.600 M199.215 84.400 C 202.690 111.439,207.813 141.708,210.447 150.757 C 211.539 154.509,211.596 154.975,211.038 155.533 C 210.282 156.290,210.476 156.510,208.259 152.389 C 202.378 141.459,198.569 118.441,197.208 85.600 C 196.993 80.430,196.728 74.220,196.619 71.800 L 196.420 67.400 197.008 69.600 C 197.332 70.810,198.325 77.470,199.215 84.400 M180.804 69.300 C 180.894 71.587,185.509 96.705,186.404 99.782 C 187.105 102.191,188.200 106.421,188.836 109.182 C 191.560 120.995,193.168 127.599,193.720 129.243 C 194.044 130.209,194.874 133.002,195.563 135.448 C 197.370 141.859,200.846 151.629,203.220 156.969 C 204.349 159.507,205.211 161.754,205.136 161.963 C 204.829 162.817,197.859 170.360,197.552 170.170 C 196.909 169.773,194.191 164.545,191.953 159.400 C 190.709 156.540,188.760 152.130,187.622 149.600 C 181.089 135.075,176.132 115.314,172.973 91.200 C 172.238 85.586,171.659 74.550,172.066 73.893 C 172.452 73.270,180.788 68.888,180.804 69.300 M265.000 151.672 C 256.298 153.789,245.299 158.485,239.873 162.401 C 237.403 164.183,230.659 168.636,225.940 171.600 C 221.138 174.616,211.891 183.469,207.620 189.138 C 203.014 195.254,195.200 210.101,195.200 212.738 C 195.200 213.976,190.681 225.490,188.112 230.800 C 186.461 234.210,183.866 239.790,182.343 243.200 C 180.821 246.610,178.971 250.390,178.231 251.600 C 177.492 252.810,175.808 256.050,174.490 258.800 C 168.104 272.117,156.549 285.944,148.600 289.779 C 135.100 296.292,129.684 297.632,116.959 297.610 C 102.558 297.584,96.599 295.041,85.400 284.143 C 75.682 274.686,79.527 260.698,94.800 249.945 C 100.566 245.886,114.118 242.551,126.647 242.109 L 132.695 241.896 132.987 244.234 C 134.886 259.432,151.715 272.681,162.256 267.278 C 167.127 264.781,176.366 247.367,177.030 239.430 L 177.234 237.000 176.460 238.888 C 175.440 241.378,169.208 250.228,166.816 252.585 L 164.926 254.446 162.105 251.316 C 159.323 248.230,159.280 248.148,158.985 245.393 C 158.820 243.857,158.341 241.430,157.919 240.000 C 157.497 238.570,156.888 236.428,156.565 235.241 C 154.654 228.200,148.654 214.641,147.272 214.242 C 146.902 214.135,144.845 213.835,142.700 213.574 C 137.203 212.907,137.840 212.426,145.600 211.384 C 147.730 211.098,155.123 209.188,158.795 207.975 C 161.161 207.194,163.142 206.128,170.200 201.839 C 172.498 200.442,180.353 193.771,186.770 187.765 C 188.437 186.205,192.320 182.937,195.400 180.502 C 198.480 178.067,201.630 175.410,202.400 174.598 C 204.048 172.858,208.171 169.600,208.724 169.600 C 209.301 169.600,210.120 174.537,209.797 176.067 C 209.462 177.654,206.326 182.741,202.442 188.000 C 200.898 190.090,199.402 192.250,199.117 192.800 C 198.833 193.349,197.300 195.909,195.710 198.487 C 192.196 204.188,189.816 208.875,187.184 215.278 C 185.143 220.244,184.742 222.405,186.650 218.161 C 194.781 200.069,198.588 194.269,209.980 182.623 C 218.932 173.471,222.480 170.194,226.758 167.127 C 236.441 160.184,250.413 154.001,260.800 152.064 C 265.203 151.242,267.739 151.006,265.000 151.672 M289.843 177.500 C 289.722 178.105,289.338 181.300,288.990 184.600 C 287.378 199.876,284.349 205.402,276.277 207.800 C 271.482 209.224,269.968 208.337,269.947 204.094 C 269.919 198.216,274.465 191.384,280.265 188.589 L 282.173 187.669 280.590 187.372 C 270.177 185.418,257.637 197.327,256.973 209.800 C 256.685 215.217,256.044 216.002,251.920 215.997 C 244.831 215.989,239.922 202.558,244.927 196.866 C 253.072 187.601,275.855 176.841,288.132 176.460 C 290.036 176.401,290.060 176.416,289.843 177.500 M215.775 212.461 C 220.290 214.518,221.087 222.951,217.584 231.600 C 217.094 232.810,216.415 234.485,216.076 235.321 C 214.354 239.570,208.798 242.246,205.371 240.478 C 198.912 237.146,198.887 230.029,205.300 220.562 C 210.016 213.601,213.078 211.232,215.775 212.461 M153.848 278.625 C 149.366 282.048,140.446 286.781,135.420 288.405 C 134.551 288.685,132.931 289.311,131.820 289.796 C 130.039 290.573,124.252 292.289,121.084 292.980 C 120.470 293.114,120.060 293.374,120.174 293.559 C 120.408 293.937,121.077 293.811,129.200 291.860 C 140.212 289.215,151.509 283.366,155.112 278.446 C 156.271 276.862,156.131 276.882,153.848 278.625 M148.043 299.475 C 155.057 302.953,158.434 308.636,155.841 312.594 C 153.692 315.873,148.406 312.838,139.215 303.046 C 137.061 300.751,136.273 300.190,134.496 299.685 C 130.625 298.583,133.565 297.615,140.433 297.729 C 144.535 297.798,144.770 297.852,148.043 299.475 " stroke="none" fill="#060404" fill-rule="evenodd"></path><path id="path2" d="M0.000 200.000 L 0.000 400.000 200.000 400.000 L 400.000 400.000 400.000 200.000 L 400.000 0.000 200.000 0.000 L 0.000 0.000 0.000 200.000 M233.800 47.451 L 235.400 48.218 235.359 51.809 C 235.319 55.283,233.911 63.405,232.592 67.770 C 230.960 73.167,229.201 97.671,229.201 115.000 C 229.201 131.263,232.517 146.027,237.195 150.595 L 238.755 152.119 242.717 151.900 C 244.896 151.780,247.021 151.499,247.440 151.276 C 247.858 151.053,249.870 150.670,251.910 150.426 C 253.951 150.182,257.461 149.533,259.710 148.984 C 267.146 147.168,279.731 146.291,284.524 147.253 C 286.628 147.676,287.040 147.622,290.548 146.458 C 292.620 145.771,295.549 145.030,297.057 144.810 C 301.155 144.214,302.586 143.713,304.691 142.138 C 307.701 139.884,311.567 135.990,313.041 133.726 C 314.353 131.711,315.207 130.818,315.193 131.476 C 315.002 140.320,311.733 145.990,305.012 149.135 L 302.625 150.252 306.612 151.538 C 311.523 153.121,317.006 156.353,319.981 159.416 C 321.798 161.286,322.333 161.624,323.181 161.436 C 329.430 160.050,339.124 159.646,340.996 160.694 C 341.824 161.157,341.349 161.308,337.400 161.838 C 334.649 162.207,330.289 163.796,327.314 165.514 L 324.828 166.950 325.621 168.235 C 329.896 175.152,331.674 190.766,329.238 200.000 C 328.803 201.650,327.983 204.752,327.416 206.893 C 320.348 233.595,304.195 252.071,276.800 264.786 C 265.791 269.896,264.147 270.742,261.800 272.511 C 257.417 275.814,255.657 277.604,252.938 281.520 C 245.446 292.312,234.327 304.269,223.873 312.775 C 222.403 313.972,221.200 315.071,221.200 315.219 C 221.200 315.611,217.130 317.999,213.001 320.030 C 208.383 322.301,204.158 322.543,200.400 320.751 C 199.190 320.174,197.210 319.385,196.000 318.997 C 194.790 318.608,193.078 317.873,192.195 317.363 C 188.204 315.056,177.688 313.214,172.820 313.970 C 168.821 314.590,168.405 314.865,168.375 316.914 C 168.189 329.238,168.327 328.873,164.114 328.187 C 159.107 327.371,157.239 326.819,153.000 324.903 C 142.515 320.164,133.855 313.276,130.838 307.275 L 129.249 304.115 126.124 303.844 C 117.000 303.054,110.914 301.327,101.000 296.713 C 96.049 294.410,94.626 293.506,88.940 289.058 C 77.584 280.174,74.455 268.605,80.594 258.200 C 87.969 245.702,106.392 233.936,125.723 229.379 C 128.723 228.672,128.728 228.668,128.580 227.435 C 128.499 226.756,128.337 224.807,128.222 223.105 C 127.907 218.476,125.771 212.264,123.487 209.333 C 121.678 207.013,121.665 206.974,121.194 202.400 C 120.573 196.369,119.905 194.948,112.712 184.353 C 102.913 169.917,102.105 168.935,89.404 156.056 C 79.756 146.273,78.712 145.367,70.064 139.290 C 67.964 137.814,64.989 136.800,62.756 136.800 C 54.932 136.800,63.961 110.618,75.254 100.557 C 75.774 100.094,77.190 98.517,78.400 97.053 C 81.808 92.931,92.425 83.562,96.600 80.993 C 97.700 80.317,100.220 78.704,102.200 77.411 C 113.131 70.270,127.938 63.209,140.800 59.004 C 143.990 57.961,148.670 56.413,151.200 55.564 C 153.730 54.715,158.140 53.472,161.000 52.801 C 163.860 52.130,166.830 51.406,167.600 51.192 C 170.236 50.458,180.997 48.835,186.000 48.418 C 188.750 48.188,193.160 47.800,195.800 47.556 C 210.354 46.210,231.092 46.153,233.800 47.451 M309.912 139.255 C 308.214 140.971,305.826 143.038,304.606 143.849 C 302.451 145.280,301.677 145.505,295.891 146.389 C 290.257 147.250,287.412 149.155,282.994 155.025 C 280.571 158.245,280.003 158.600,279.995 156.900 C 279.992 156.086,279.643 156.595,278.654 158.861 C 277.919 160.545,276.685 162.705,275.911 163.661 C 273.370 166.805,272.953 168.553,274.400 170.000 C 276.093 171.693,279.695 170.439,280.995 167.705 C 282.018 165.554,282.802 165.024,286.443 164.017 C 290.719 162.836,292.290 161.375,295.867 155.260 C 297.942 151.711,299.200 150.608,303.538 148.534 C 309.368 145.745,311.350 143.623,312.590 138.838 C 313.427 135.610,313.534 135.593,309.912 139.255 M329.800 161.673 C 323.131 163.299,321.423 163.858,318.055 165.520 C 311.405 168.801,308.021 172.555,305.558 179.382 C 303.791 184.277,301.648 187.844,298.251 191.544 C 281.880 209.376,268.984 214.811,269.007 203.868 C 269.017 198.908,270.028 196.771,274.553 192.135 C 278.359 188.236,278.368 188.123,274.820 188.796 C 265.971 190.474,258.875 199.475,257.994 210.137 C 257.606 214.840,257.410 215.272,255.143 216.429 C 248.395 219.872,241.073 211.466,241.714 201.013 C 241.930 197.503,242.144 196.734,245.048 189.040 C 245.372 188.182,246.349 186.672,247.219 185.684 C 248.088 184.696,248.800 183.738,248.800 183.555 C 248.800 183.373,250.519 182.013,252.620 180.534 C 256.865 177.546,259.316 174.304,260.565 170.027 C 261.474 166.918,261.350 166.735,259.891 169.029 C 256.193 174.843,251.365 178.734,242.752 182.844 C 237.100 185.541,228.520 192.940,225.239 197.946 C 222.611 201.954,222.117 204.055,221.821 212.459 C 221.418 223.882,219.829 231.359,216.786 236.158 C 216.134 237.186,215.600 238.109,215.600 238.209 C 215.600 239.840,209.711 242.964,207.658 242.422 C 206.856 242.210,205.700 241.934,205.090 241.808 C 198.969 240.549,197.897 232.701,202.277 221.200 C 202.627 220.280,200.181 222.699,197.827 225.600 C 192.702 231.916,190.912 236.626,189.618 247.200 C 189.114 251.322,187.952 253.687,184.705 257.200 C 181.276 260.910,180.748 261.901,180.490 265.111 L 180.286 267.658 181.643 266.830 C 187.767 263.097,187.583 271.579,181.341 280.705 C 178.403 285.001,177.310 291.784,178.490 298.400 L 179.024 301.400 180.556 299.092 C 183.606 294.497,189.549 291.690,197.849 290.922 C 200.459 290.680,203.200 291.908,203.200 293.319 C 203.200 296.907,209.156 297.083,216.600 293.714 C 226.569 289.201,228.741 287.495,234.420 279.712 L 235.651 278.024 232.762 279.216 C 222.042 283.636,215.496 282.807,216.758 277.188 C 217.744 272.799,222.723 269.122,230.466 267.064 C 241.227 264.205,246.170 259.980,251.774 248.852 L 253.210 245.999 251.305 246.720 C 243.134 249.812,240.553 240.693,247.292 232.538 C 248.123 231.533,249.140 229.947,249.553 229.014 C 250.557 226.743,255.335 221.718,256.942 221.242 C 257.634 221.038,259.100 220.512,260.200 220.075 C 266.024 217.759,270.277 217.878,273.000 220.433 C 277.040 224.225,283.908 223.170,290.437 217.755 C 296.587 212.655,298.620 208.996,300.415 199.800 C 303.149 185.792,314.520 170.919,327.600 164.242 C 333.066 161.452,333.689 160.725,329.800 161.673 M135.600 298.279 C 132.995 298.561,132.925 298.848,135.242 299.738 C 137.099 300.452,138.070 301.241,140.912 304.340 C 149.787 314.020,155.792 316.178,156.308 309.876 C 156.887 302.823,146.640 297.085,135.600 298.279 " stroke="none" fill="#f4f4f4" fill-rule="evenodd"></path><path id="path3" d="M213.682 46.696 C 215.158 46.773,217.678 46.773,219.282 46.697 C 220.887 46.621,219.680 46.558,216.600 46.558 C 213.520 46.557,212.207 46.619,213.682 46.696 M224.700 46.689 C 225.415 46.778,226.585 46.778,227.300 46.689 C 228.015 46.601,227.430 46.528,226.000 46.528 C 224.570 46.528,223.985 46.601,224.700 46.689 M203.511 47.093 C 204.451 47.178,205.891 47.177,206.711 47.091 C 207.530 47.005,206.760 46.936,205.000 46.937 C 203.240 46.939,202.570 47.009,203.511 47.093 M198.900 47.476 C 199.285 47.576,199.915 47.576,200.300 47.476 C 200.685 47.375,200.370 47.293,199.600 47.293 C 198.830 47.293,198.515 47.375,198.900 47.476 M154.600 54.400 C 154.096 54.617,154.022 54.744,154.400 54.744 C 154.730 54.744,155.360 54.589,155.800 54.400 C 156.304 54.183,156.378 54.056,156.000 54.056 C 155.670 54.056,155.040 54.211,154.600 54.400 M122.400 66.200 C 121.850 66.514,121.580 66.772,121.800 66.772 C 122.020 66.772,122.650 66.514,123.200 66.200 C 123.750 65.886,124.020 65.628,123.800 65.628 C 123.580 65.628,122.950 65.886,122.400 66.200 M230.101 84.600 C 230.105 85.480,230.187 85.793,230.283 85.295 C 230.379 84.798,230.375 84.078,230.275 83.695 C 230.175 83.313,230.096 83.720,230.101 84.600 M229.728 92.800 C 229.728 94.230,229.801 94.815,229.889 94.100 C 229.978 93.385,229.978 92.215,229.889 91.500 C 229.801 90.785,229.728 91.370,229.728 92.800 M81.178 93.900 L 79.800 95.400 81.300 94.022 C 82.696 92.738,82.984 92.400,82.678 92.400 C 82.612 92.400,81.937 93.075,81.178 93.900 M229.346 100.600 C 229.347 102.800,229.414 103.649,229.495 102.487 C 229.576 101.324,229.576 99.524,229.493 98.487 C 229.411 97.449,229.345 98.400,229.346 100.600 M73.978 101.900 L 72.600 103.400 74.100 102.022 C 75.496 100.738,75.784 100.400,75.478 100.400 C 75.412 100.400,74.737 101.075,73.978 101.900 M228.965 115.200 C 228.965 119.050,229.025 120.625,229.098 118.700 C 229.171 116.775,229.171 113.625,229.098 111.700 C 229.025 109.775,228.965 111.350,228.965 115.200 M229.309 124.800 C 229.309 125.790,229.387 126.195,229.482 125.700 C 229.578 125.205,229.578 124.395,229.482 123.900 C 229.387 123.405,229.309 123.810,229.309 124.800 M309.186 138.300 L 307.000 140.600 309.300 138.414 C 310.565 137.211,311.600 136.176,311.600 136.114 C 311.600 135.817,311.218 136.163,309.186 138.300 M61.700 136.676 C 62.085 136.776,62.715 136.776,63.100 136.676 C 63.485 136.575,63.170 136.493,62.400 136.493 C 61.630 136.493,61.315 136.575,61.700 136.676 M309.781 139.300 L 308.200 141.000 309.900 139.419 C 311.481 137.948,311.784 137.600,311.481 137.600 C 311.416 137.600,310.651 138.365,309.781 139.300 M308.800 145.282 C 307.590 146.411,306.960 147.138,307.400 146.899 C 308.169 146.480,311.553 143.184,311.181 143.215 C 311.082 143.224,310.010 144.154,308.800 145.282 M300.100 145.476 C 300.485 145.576,301.115 145.576,301.500 145.476 C 301.885 145.375,301.570 145.293,300.800 145.293 C 300.030 145.293,299.715 145.375,300.100 145.476 M85.400 152.000 C 88.915 155.520,91.881 158.400,91.991 158.400 C 92.101 158.400,89.315 155.520,85.800 152.000 C 82.285 148.480,79.319 145.600,79.209 145.600 C 79.099 145.600,81.885 148.480,85.400 152.000 M275.900 147.096 C 277.275 147.174,279.525 147.174,280.900 147.096 C 282.275 147.018,281.150 146.954,278.400 146.954 C 275.650 146.954,274.525 147.018,275.900 147.096 M236.000 149.725 C 236.000 149.794,236.585 150.379,237.300 151.025 L 238.600 152.200 237.425 150.900 C 236.330 149.688,236.000 149.416,236.000 149.725 M239.505 152.283 C 240.002 152.379,240.722 152.375,241.105 152.275 C 241.487 152.175,241.080 152.096,240.200 152.101 C 239.320 152.105,239.007 152.187,239.505 152.283 M340.000 160.800 C 340.453 161.093,340.258 161.197,339.200 161.225 C 338.430 161.246,338.035 161.357,338.321 161.472 C 339.220 161.832,341.833 161.193,341.172 160.774 C 340.858 160.575,340.330 160.412,340.000 160.412 C 339.467 160.412,339.467 160.455,340.000 160.800 M332.130 161.063 C 332.275 161.208,332.170 161.613,331.897 161.963 C 331.471 162.509,331.489 162.531,332.022 162.116 C 332.363 161.850,333.083 161.456,333.622 161.241 C 334.551 160.870,334.531 160.849,333.233 160.825 C 332.482 160.811,331.985 160.918,332.130 161.063 M99.000 166.000 C 99.859 166.880,100.652 167.600,100.762 167.600 C 100.872 167.600,100.259 166.880,99.400 166.000 C 98.541 165.120,97.748 164.400,97.638 164.400 C 97.528 164.400,98.141 165.120,99.000 166.000 M310.400 170.600 C 309.428 171.590,308.723 172.400,308.833 172.400 C 308.943 172.400,309.828 171.590,310.800 170.600 C 311.772 169.610,312.477 168.800,312.367 168.800 C 312.257 168.800,311.372 169.610,310.400 170.600 M315.785 172.900 L 313.800 175.000 315.900 173.015 C 317.851 171.171,318.183 170.800,317.885 170.800 C 317.822 170.800,316.877 171.745,315.785 172.900 M255.375 174.500 L 254.200 175.800 255.500 174.625 C 256.215 173.979,256.800 173.394,256.800 173.325 C 256.800 173.016,256.470 173.288,255.375 174.500 M311.381 177.700 L 309.800 179.400 311.500 177.819 C 313.081 176.348,313.384 176.000,313.081 176.000 C 313.016 176.000,312.251 176.765,311.381 177.700 M330.101 192.200 C 330.105 193.080,330.187 193.393,330.283 192.895 C 330.379 192.398,330.375 191.678,330.275 191.295 C 330.175 190.913,330.096 191.320,330.101 192.200 M229.375 192.500 L 228.200 193.800 229.500 192.625 C 230.215 191.979,230.800 191.394,230.800 191.325 C 230.800 191.016,230.470 191.288,229.375 192.500 M242.200 196.800 C 242.048 197.491,242.007 198.141,242.109 198.242 C 242.211 198.344,242.409 197.853,242.550 197.150 C 242.883 195.483,242.560 195.160,242.200 196.800 M270.581 196.837 C 270.229 197.518,270.012 198.145,270.099 198.232 C 270.186 198.319,270.556 197.762,270.922 196.995 C 271.744 195.270,271.459 195.138,270.581 196.837 M289.978 199.500 L 288.600 201.000 290.100 199.622 C 291.496 198.338,291.784 198.000,291.478 198.000 C 291.412 198.000,290.737 198.675,289.978 199.500 M241.740 202.400 C 241.740 204.270,241.809 205.035,241.893 204.100 C 241.977 203.165,241.977 201.635,241.893 200.700 C 241.809 199.765,241.740 200.530,241.740 202.400 M121.293 203.200 C 121.293 203.970,121.375 204.285,121.476 203.900 C 121.576 203.515,121.576 202.885,121.476 202.500 C 121.375 202.115,121.293 202.430,121.293 203.200 M221.728 208.800 C 221.728 210.230,221.801 210.815,221.889 210.100 C 221.978 209.385,221.978 208.215,221.889 207.500 C 221.801 206.785,221.728 207.370,221.728 208.800 M272.500 209.476 C 272.885 209.576,273.515 209.576,273.900 209.476 C 274.285 209.375,273.970 209.293,273.200 209.293 C 272.430 209.293,272.115 209.375,272.500 209.476 M257.693 211.600 C 257.693 212.370,257.775 212.685,257.876 212.300 C 257.976 211.915,257.976 211.285,257.876 210.900 C 257.775 210.515,257.693 210.830,257.693 211.600 M221.337 217.800 C 221.339 219.560,221.409 220.230,221.493 219.289 C 221.578 218.349,221.577 216.909,221.491 216.089 C 221.405 215.270,221.336 216.040,221.337 217.800 M250.900 217.087 C 251.505 217.178,252.495 217.178,253.100 217.087 C 253.705 216.995,253.210 216.920,252.000 216.920 C 250.790 216.920,250.295 216.995,250.900 217.087 M200.975 221.700 L 199.800 223.000 201.028 221.894 C 201.703 221.286,202.378 220.911,202.528 221.061 C 202.677 221.211,202.800 221.123,202.800 220.867 C 202.800 220.072,202.198 220.346,200.975 221.700 M254.575 222.900 L 253.400 224.200 254.700 223.025 C 255.415 222.379,256.000 221.794,256.000 221.725 C 256.000 221.416,255.670 221.688,254.575 222.900 M278.300 223.082 C 278.795 223.178,279.605 223.178,280.100 223.082 C 280.595 222.987,280.190 222.909,279.200 222.909 C 278.210 222.909,277.805 222.987,278.300 223.082 M128.493 226.800 C 128.493 227.570,128.575 227.885,128.676 227.500 C 128.776 227.115,128.776 226.485,128.676 226.100 C 128.575 225.715,128.493 226.030,128.493 226.800 M199.293 233.600 C 199.293 234.370,199.375 234.685,199.476 234.300 C 199.576 233.915,199.576 233.285,199.476 232.900 C 199.375 232.515,199.293 232.830,199.293 233.600 M217.000 235.200 C 216.659 235.860,216.469 236.400,216.579 236.400 C 216.689 236.400,217.059 235.860,217.400 235.200 C 217.741 234.540,217.931 234.000,217.821 234.000 C 217.711 234.000,217.341 234.540,217.000 235.200 M212.975 240.500 L 211.800 241.800 213.100 240.625 C 213.815 239.979,214.400 239.394,214.400 239.325 C 214.400 239.016,214.070 239.288,212.975 240.500 M307.578 243.100 L 306.200 244.600 307.700 243.222 C 309.096 241.938,309.384 241.600,309.078 241.600 C 309.012 241.600,308.337 242.275,307.578 243.100 M189.309 247.600 C 189.309 248.590,189.387 248.995,189.482 248.500 C 189.578 248.005,189.578 247.195,189.482 246.700 C 189.387 246.205,189.309 246.610,189.309 247.600 M89.375 247.700 L 88.200 249.000 89.500 247.825 C 90.712 246.730,90.984 246.400,90.675 246.400 C 90.606 246.400,90.021 246.985,89.375 247.700 M298.975 251.300 L 297.800 252.600 299.100 251.425 C 299.815 250.779,300.400 250.194,300.400 250.125 C 300.400 249.816,300.070 250.088,298.975 251.300 M185.381 256.100 L 183.800 257.800 185.500 256.219 C 187.081 254.748,187.384 254.400,187.081 254.400 C 187.016 254.400,186.251 255.165,185.381 256.100 M185.709 270.000 C 185.709 270.990,185.787 271.395,185.882 270.900 C 185.978 270.405,185.978 269.595,185.882 269.100 C 185.787 268.605,185.709 269.010,185.709 270.000 M255.978 277.100 L 254.600 278.600 256.100 277.222 C 257.496 275.938,257.784 275.600,257.478 275.600 C 257.412 275.600,256.737 276.275,255.978 277.100 M82.800 283.000 C 83.546 283.770,84.247 284.400,84.357 284.400 C 84.467 284.400,83.946 283.770,83.200 283.000 C 82.454 282.230,81.753 281.600,81.643 281.600 C 81.533 281.600,82.054 282.230,82.800 283.000 M230.575 284.500 L 229.400 285.800 230.700 284.625 C 231.415 283.979,232.000 283.394,232.000 283.325 C 232.000 283.016,231.670 283.288,230.575 284.500 M86.000 286.600 C 86.746 287.370,87.447 288.000,87.557 288.000 C 87.667 288.000,87.146 287.370,86.400 286.600 C 85.654 285.830,84.953 285.200,84.843 285.200 C 84.733 285.200,85.254 285.830,86.000 286.600 M242.378 294.700 L 241.000 296.200 242.500 294.822 C 243.896 293.538,244.184 293.200,243.878 293.200 C 243.812 293.200,243.137 293.875,242.378 294.700 M206.700 296.282 C 207.195 296.378,208.005 296.378,208.500 296.282 C 208.995 296.187,208.590 296.109,207.600 296.109 C 206.610 296.109,206.205 296.187,206.700 296.282 M140.305 297.883 C 140.802 297.979,141.522 297.975,141.905 297.875 C 142.287 297.775,141.880 297.696,141.000 297.701 C 140.120 297.705,139.807 297.787,140.305 297.883 M237.188 300.300 L 234.600 303.000 237.300 300.412 C 238.785 298.988,240.000 297.773,240.000 297.712 C 240.000 297.417,239.593 297.792,237.188 300.300 M137.514 301.000 C 137.741 301.440,138.438 302.249,139.063 302.799 L 140.200 303.797 139.003 302.399 C 137.107 300.182,137.080 300.158,137.514 301.000 M228.400 308.600 C 227.428 309.590,226.723 310.400,226.833 310.400 C 226.943 310.400,227.828 309.590,228.800 308.600 C 229.772 307.610,230.477 306.800,230.367 306.800 C 230.257 306.800,229.372 307.610,228.400 308.600 M172.100 313.876 C 172.485 313.976,173.115 313.976,173.500 313.876 C 173.885 313.775,173.570 313.693,172.800 313.693 C 172.030 313.693,171.715 313.775,172.100 313.876 M168.093 317.600 C 168.093 318.370,168.175 318.685,168.276 318.300 C 168.376 317.915,168.376 317.285,168.276 316.900 C 168.175 316.515,168.093 316.830,168.093 317.600 M168.114 321.800 C 168.117 322.900,168.195 323.303,168.287 322.695 C 168.379 322.086,168.377 321.186,168.282 320.695 C 168.187 320.203,168.111 320.700,168.114 321.800 " stroke="none" fill="#929292" fill-rule="evenodd"></path><path id="path4" d="M208.700 47.082 C 209.195 47.178,210.005 47.178,210.500 47.082 C 210.995 46.987,210.590 46.909,209.600 46.909 C 208.610 46.909,208.205 46.987,208.700 47.082 M221.100 47.082 C 221.595 47.178,222.405 47.178,222.900 47.082 C 223.395 46.987,222.990 46.909,222.000 46.909 C 221.010 46.909,220.605 46.987,221.100 47.082 M187.000 48.400 L 183.800 48.653 186.800 48.699 C 188.450 48.723,190.160 48.589,190.600 48.400 C 191.041 48.210,191.131 48.077,190.800 48.101 C 190.470 48.126,188.760 48.261,187.000 48.400 M181.300 49.076 C 181.685 49.176,182.315 49.176,182.700 49.076 C 183.085 48.975,182.770 48.893,182.000 48.893 C 181.230 48.893,180.915 48.975,181.300 49.076 M134.200 61.414 C 133.200 61.896,133.166 61.951,134.000 61.748 C 135.133 61.471,136.407 60.821,135.800 60.830 C 135.580 60.833,134.860 61.096,134.200 61.414 M230.493 78.400 C 230.493 79.170,230.575 79.485,230.676 79.100 C 230.776 78.715,230.776 78.085,230.676 77.700 C 230.575 77.315,230.493 77.630,230.493 78.400 M230.109 81.600 C 230.109 82.590,230.187 82.995,230.282 82.500 C 230.378 82.005,230.378 81.195,230.282 80.700 C 230.187 80.205,230.109 80.610,230.109 81.600 M229.731 87.800 C 229.733 89.340,229.805 89.921,229.892 89.091 C 229.979 88.261,229.977 87.001,229.889 86.291 C 229.800 85.581,229.729 86.260,229.731 87.800 M86.975 88.900 L 85.800 90.200 87.100 89.025 C 88.312 87.930,88.584 87.600,88.275 87.600 C 88.206 87.600,87.621 88.185,86.975 88.900 M82.386 93.100 L 80.200 95.400 82.500 93.214 C 84.637 91.182,84.983 90.800,84.686 90.800 C 84.624 90.800,83.589 91.835,82.386 93.100 M229.314 95.000 C 229.317 96.100,229.395 96.503,229.487 95.895 C 229.579 95.286,229.577 94.386,229.482 93.895 C 229.387 93.403,229.311 93.900,229.314 95.000 M228.924 106.200 C 228.926 107.520,229.001 108.012,229.090 107.293 C 229.179 106.574,229.177 105.494,229.086 104.893 C 228.995 104.292,228.922 104.880,228.924 106.200 M313.436 133.479 L 312.753 134.600 313.576 133.656 L 314.400 132.711 314.446 133.656 C 314.483 134.400,314.533 134.443,314.684 133.858 C 315.023 132.539,314.167 132.279,313.436 133.479 M312.994 135.210 C 312.855 135.435,312.963 135.570,313.235 135.510 C 313.507 135.449,313.862 135.850,314.025 136.400 C 314.301 137.334,314.323 137.314,314.360 136.100 C 314.400 134.813,313.572 134.274,312.994 135.210 M311.204 137.396 C 310.932 137.723,310.570 137.905,310.400 137.800 C 310.230 137.695,309.882 137.861,309.626 138.169 C 308.689 139.297,309.912 139.136,311.014 137.986 C 311.638 137.334,312.048 136.800,311.924 136.800 C 311.800 136.800,311.476 137.068,311.204 137.396 M306.200 141.200 C 305.802 141.640,305.616 142.000,305.787 142.000 C 305.958 142.000,305.851 142.315,305.549 142.700 C 305.050 143.337,305.064 143.349,305.710 142.843 C 306.100 142.537,306.325 142.191,306.209 142.075 C 306.093 141.960,306.297 141.535,306.661 141.132 C 307.026 140.730,307.234 140.400,307.124 140.400 C 307.014 140.400,306.598 140.760,306.200 141.200 M233.600 145.353 C 233.600 145.782,234.790 148.000,235.021 148.000 C 235.131 148.000,234.923 147.415,234.559 146.700 C 233.817 145.240,233.600 144.936,233.600 145.353 M293.600 146.005 C 293.930 146.216,294.725 146.391,295.367 146.394 C 296.914 146.402,296.577 146.171,294.600 145.868 C 293.510 145.701,293.191 145.745,293.600 146.005 M286.388 150.700 L 283.800 153.400 286.500 150.812 C 287.985 149.388,289.200 148.173,289.200 148.112 C 289.200 147.817,288.793 148.192,286.388 150.700 M303.045 149.273 C 303.233 149.576,303.115 149.653,302.704 149.495 C 302.360 149.363,301.745 149.513,301.339 149.828 C 300.682 150.338,300.678 150.375,301.300 150.158 C 301.741 150.004,302.002 150.115,302.006 150.457 C 302.010 150.816,302.112 150.853,302.306 150.566 C 302.468 150.327,302.935 149.949,303.344 149.725 C 304.016 149.358,304.024 149.295,303.423 149.064 C 302.979 148.894,302.854 148.963,303.045 149.273 M282.000 155.600 C 281.530 156.260,281.236 156.800,281.346 156.800 C 281.456 156.800,281.930 156.260,282.400 155.600 C 282.870 154.940,283.164 154.400,283.054 154.400 C 282.944 154.400,282.470 154.940,282.000 155.600 M333.491 160.289 C 334.201 160.377,335.461 160.379,336.291 160.292 C 337.121 160.205,336.540 160.133,335.000 160.131 C 333.460 160.129,332.781 160.200,333.491 160.289 M333.400 161.402 L 332.200 161.967 333.400 161.732 C 334.060 161.603,334.771 161.340,334.980 161.148 C 335.550 160.626,334.787 160.748,333.400 161.402 M97.200 163.800 C 98.617 165.230,99.867 166.400,99.977 166.400 C 100.087 166.400,99.017 165.230,97.600 163.800 C 96.183 162.370,94.933 161.200,94.823 161.200 C 94.713 161.200,95.783 162.370,97.200 163.800 M321.628 161.736 C 322.133 162.291,322.447 162.344,323.228 162.002 L 324.200 161.577 323.221 161.772 C 322.682 161.879,321.962 161.759,321.621 161.505 C 321.075 161.099,321.075 161.127,321.628 161.736 M324.600 162.400 C 324.096 162.617,324.022 162.744,324.400 162.744 C 324.730 162.744,325.360 162.589,325.800 162.400 C 326.304 162.183,326.378 162.056,326.000 162.056 C 325.670 162.056,325.040 162.211,324.600 162.400 M316.300 165.829 C 314.805 166.640,314.896 166.978,316.400 166.200 C 317.060 165.859,317.600 165.494,317.600 165.390 C 317.600 165.132,317.557 165.147,316.300 165.829 M325.355 165.772 C 325.224 166.115,324.985 166.314,324.825 166.215 C 324.664 166.116,324.533 166.298,324.533 166.619 C 324.533 167.095,324.688 167.074,325.367 166.506 C 325.825 166.122,326.257 165.780,326.327 165.744 C 326.396 165.709,326.260 165.561,326.024 165.415 C 325.788 165.269,325.487 165.430,325.355 165.772 M261.055 166.200 C 260.915 166.565,261.055 166.800,261.413 166.800 C 261.736 166.800,262.000 166.530,262.000 166.200 C 262.000 165.870,261.839 165.600,261.643 165.600 C 261.446 165.600,261.182 165.870,261.055 166.200 M317.578 171.500 L 316.200 173.000 317.700 171.622 C 319.096 170.338,319.384 170.000,319.078 170.000 C 319.012 170.000,318.337 170.675,317.578 171.500 M255.586 173.900 L 253.400 176.200 255.700 174.014 C 256.965 172.811,258.000 171.776,258.000 171.714 C 258.000 171.417,257.618 171.763,255.586 173.900 M314.175 174.900 L 313.000 176.200 314.300 175.025 C 315.015 174.379,315.600 173.794,315.600 173.725 C 315.600 173.416,315.270 173.688,314.175 174.900 M256.175 178.100 L 255.000 179.400 256.300 178.225 C 257.015 177.579,257.600 176.994,257.600 176.925 C 257.600 176.616,257.270 176.888,256.175 178.100 M330.114 186.600 C 330.117 187.700,330.195 188.103,330.287 187.495 C 330.379 186.886,330.377 185.986,330.282 185.495 C 330.187 185.003,330.111 185.500,330.114 186.600 M277.700 188.276 C 278.085 188.376,278.715 188.376,279.100 188.276 C 279.485 188.175,279.170 188.093,278.400 188.093 C 277.630 188.093,277.315 188.175,277.700 188.276 M274.585 192.100 L 272.600 194.200 274.700 192.215 C 276.651 190.371,276.983 190.000,276.685 190.000 C 276.622 190.000,275.677 190.945,274.585 192.100 M295.600 193.800 C 293.961 195.450,292.710 196.800,292.820 196.800 C 292.930 196.800,294.361 195.450,296.000 193.800 C 297.639 192.150,298.890 190.800,298.780 190.800 C 298.670 190.800,297.239 192.150,295.600 193.800 M329.701 194.600 C 329.705 195.480,329.787 195.793,329.883 195.295 C 329.979 194.798,329.975 194.078,329.875 193.695 C 329.775 193.313,329.696 193.720,329.701 194.600 M268.901 203.400 C 268.905 204.280,268.987 204.593,269.083 204.095 C 269.179 203.598,269.175 202.878,269.075 202.495 C 268.975 202.113,268.896 202.520,268.901 203.400 M121.693 204.400 C 121.693 205.170,121.775 205.485,121.876 205.100 C 121.976 204.715,121.976 204.085,121.876 203.700 C 121.775 203.315,121.693 203.630,121.693 204.400 M257.714 208.600 C 257.717 209.700,257.795 210.103,257.887 209.495 C 257.979 208.886,257.977 207.986,257.882 207.495 C 257.787 207.003,257.711 207.500,257.714 208.600 M221.331 212.200 C 221.333 213.740,221.405 214.321,221.492 213.491 C 221.579 212.661,221.577 211.401,221.489 210.691 C 221.400 209.981,221.329 210.660,221.331 212.200 M246.000 214.200 C 246.746 214.970,247.447 215.600,247.557 215.600 C 247.667 215.600,247.146 214.970,246.400 214.200 C 245.654 213.430,244.953 212.800,244.843 212.800 C 244.733 212.800,245.254 213.430,246.000 214.200 M293.578 215.100 L 292.200 216.600 293.700 215.222 C 295.096 213.938,295.384 213.600,295.078 213.600 C 295.012 213.600,294.337 214.275,293.578 215.100 M198.575 224.100 L 197.400 225.400 198.700 224.225 C 199.912 223.130,200.184 222.800,199.875 222.800 C 199.806 222.800,199.221 223.385,198.575 224.100 M128.493 224.400 C 128.493 225.170,128.575 225.485,128.676 225.100 C 128.776 224.715,128.776 224.085,128.676 223.700 C 128.575 223.315,128.493 223.630,128.493 224.400 M317.800 229.600 C 317.459 230.260,317.269 230.800,317.379 230.800 C 317.489 230.800,317.859 230.260,318.200 229.600 C 318.541 228.940,318.731 228.400,318.621 228.400 C 318.511 228.400,318.141 228.940,317.800 229.600 M193.800 230.800 C 193.459 231.460,193.269 232.000,193.379 232.000 C 193.489 232.000,193.859 231.460,194.200 230.800 C 194.541 230.140,194.731 229.600,194.621 229.600 C 194.511 229.600,194.141 230.140,193.800 230.800 M103.900 237.829 C 102.405 238.640,102.496 238.978,104.000 238.200 C 104.660 237.859,105.200 237.494,105.200 237.390 C 105.200 237.132,105.157 237.147,103.900 237.829 M309.381 240.900 L 307.800 242.600 309.500 241.019 C 311.081 239.548,311.384 239.200,311.081 239.200 C 311.016 239.200,310.251 239.965,309.381 240.900 M190.093 240.800 C 190.093 241.570,190.175 241.885,190.276 241.500 C 190.376 241.115,190.376 240.485,190.276 240.100 C 190.175 239.715,190.093 240.030,190.093 240.800 M206.800 241.982 C 207.130 242.205,207.745 242.391,208.167 242.394 C 209.190 242.402,208.871 242.173,207.400 241.844 C 206.524 241.648,206.362 241.685,206.800 241.982 M304.581 246.100 L 303.000 247.800 304.700 246.219 C 306.281 244.748,306.584 244.400,306.281 244.400 C 306.216 244.400,305.451 245.165,304.581 246.100 M86.778 250.300 L 85.400 251.800 86.900 250.422 C 88.296 249.138,88.584 248.800,88.278 248.800 C 88.212 248.800,87.537 249.475,86.778 250.300 M298.175 251.700 L 297.000 253.000 298.300 251.825 C 299.015 251.179,299.600 250.594,299.600 250.525 C 299.600 250.216,299.270 250.488,298.175 251.700 M280.300 262.629 C 278.749 263.470,278.925 263.761,280.500 262.959 C 282.008 262.193,282.275 261.994,281.767 262.016 C 281.565 262.025,280.905 262.301,280.300 262.629 M77.734 268.000 C 77.734 269.650,77.805 270.325,77.891 269.500 C 77.978 268.675,77.978 267.325,77.891 266.500 C 77.805 265.675,77.734 266.350,77.734 268.000 M234.800 277.841 C 233.810 278.394,233.360 278.722,233.800 278.571 C 234.240 278.420,234.935 278.262,235.344 278.219 C 235.754 278.177,236.258 277.840,236.464 277.471 C 236.931 276.637,236.973 276.628,234.800 277.841 M220.900 281.887 C 221.505 281.978,222.495 281.978,223.100 281.887 C 223.705 281.795,223.210 281.720,222.000 281.720 C 220.790 281.720,220.295 281.795,220.900 281.887 M85.600 285.800 C 86.346 286.570,87.047 287.200,87.157 287.200 C 87.267 287.200,86.746 286.570,86.000 285.800 C 85.254 285.030,84.553 284.400,84.443 284.400 C 84.333 284.400,84.854 285.030,85.600 285.800 M228.981 286.500 L 227.400 288.200 229.100 286.619 C 230.681 285.148,230.984 284.800,230.681 284.800 C 230.616 284.800,229.851 285.565,228.981 286.500 M177.714 291.000 C 177.717 292.100,177.795 292.503,177.887 291.895 C 177.979 291.286,177.977 290.386,177.882 289.895 C 177.787 289.403,177.711 289.900,177.714 291.000 M197.300 291.076 C 197.685 291.176,198.315 291.176,198.700 291.076 C 199.085 290.975,198.770 290.893,198.000 290.893 C 197.230 290.893,196.915 290.975,197.300 291.076 M177.701 295.400 C 177.705 296.280,177.787 296.593,177.883 296.095 C 177.979 295.598,177.975 294.878,177.875 294.495 C 177.775 294.113,177.696 294.520,177.701 295.400 M182.175 297.300 L 181.000 298.600 182.300 297.425 C 183.512 296.330,183.784 296.000,183.475 296.000 C 183.406 296.000,182.821 296.585,182.175 297.300 M239.200 297.800 C 238.228 298.790,237.523 299.600,237.633 299.600 C 237.743 299.600,238.628 298.790,239.600 297.800 C 240.572 296.810,241.277 296.000,241.167 296.000 C 241.057 296.000,240.172 296.810,239.200 297.800 M136.905 297.887 C 137.514 297.979,138.414 297.977,138.905 297.882 C 139.397 297.787,138.900 297.711,137.800 297.714 C 136.700 297.717,136.297 297.795,136.905 297.887 M178.454 300.676 C 178.392 301.688,179.008 302.234,179.434 301.545 C 179.608 301.263,179.551 301.183,179.290 301.344 C 179.040 301.499,178.784 301.229,178.683 300.706 C 178.510 299.807,178.509 299.807,178.454 300.676 M234.587 302.500 L 232.200 305.000 234.700 302.613 C 236.075 301.299,237.200 300.174,237.200 300.113 C 237.200 299.817,236.805 300.178,234.587 302.500 M144.000 308.125 C 144.000 308.194,144.585 308.779,145.300 309.425 L 146.600 310.600 145.425 309.300 C 144.330 308.088,144.000 307.816,144.000 308.125 M134.000 311.800 C 134.746 312.570,135.447 313.200,135.557 313.200 C 135.667 313.200,135.146 312.570,134.400 311.800 C 133.654 311.030,132.953 310.400,132.843 310.400 C 132.733 310.400,133.254 311.030,134.000 311.800 M155.380 312.775 C 155.171 312.981,154.190 313.219,153.200 313.305 L 151.400 313.460 153.251 313.530 C 154.478 313.576,155.270 313.398,155.600 313.000 C 156.147 312.341,155.986 312.177,155.380 312.775 M183.200 314.400 C 184.568 314.838,185.619 314.838,184.600 314.400 C 184.160 314.211,183.440 314.062,183.000 314.068 C 182.357 314.077,182.396 314.143,183.200 314.400 M204.500 321.876 C 204.885 321.976,205.515 321.976,205.900 321.876 C 206.285 321.775,205.970 321.693,205.200 321.693 C 204.430 321.693,204.115 321.775,204.500 321.876 " stroke="none" fill="#6c6c6c" fill-rule="evenodd"></path></g></svg>